<?xml version="1.0" encoding="UTF-8"?>
<!DOCTYPE svg PUBLIC "-//W3C//DTD SVG 1.1//EN" "http://www.w3.org/Graphics/SVG/1.1/DTD/svg11.dtd">
<svg xmlns="http://www.w3.org/2000/svg" version="1.1" width="500px" height="500px" style="shape-rendering:geometricPrecision; text-rendering:geometricPrecision; image-rendering:optimizeQuality; fill-rule:evenodd; clip-rule:evenodd" xmlns:xlink="http://www.w3.org/1999/xlink">
<g><path style="opacity:1" fill="#fefefe" d="M -0.5,-0.5 C 166.167,-0.5 332.833,-0.5 499.5,-0.5C 499.5,166.167 499.5,332.833 499.5,499.5C 332.833,499.5 166.167,499.5 -0.5,499.5C -0.5,332.833 -0.5,166.167 -0.5,-0.5 Z"/></g>
<g><path style="opacity:1" fill="#010101" d="M 183.5,153.5 C 195.167,153.5 206.833,153.5 218.5,153.5C 228.237,180.709 238.57,207.709 249.5,234.5C 260.43,207.709 270.763,180.709 280.5,153.5C 292.167,153.5 303.833,153.5 315.5,153.5C 319.61,200.824 323.61,248.157 327.5,295.5C 316.833,295.5 306.167,295.5 295.5,295.5C 294.387,267.363 292.054,239.363 288.5,211.5C 277.995,238.849 268.329,266.516 259.5,294.5C 252.833,294.5 246.167,294.5 239.5,294.5C 230.433,266.633 220.767,238.967 210.5,211.5C 209.749,212.376 209.249,213.376 209,214.5C 206.558,241.465 204.725,268.465 203.5,295.5C 192.495,295.667 181.495,295.5 170.5,295C 175.22,247.917 179.553,200.75 183.5,153.5 Z"/></g>
</svg>
